<svg width="350" height="350" viewBox="0 0 350 350" fill="none" xmlns="http://www.w3.org/2000/svg">
<path d="M48.2189 168.892C47.0193 170.091 45 172.111 45 175.33C44.9999 178.012 45 179.085 53.5844 187.67C66.9974 200.009 114.748 254.198 180.203 251.515C245.658 248.833 295.018 188.206 299.31 183.914C303.602 179.622 304.675 176.403 304.675 174.793C304.675 173.505 301.099 168.891 299.31 166.745C280.532 144.569 229.348 100.11 174.838 99.6805C106.7 99.144 51.4383 165.672 48.2192 168.891L48.2189 168.892Z" fill="#F7F7F7"/>
<circle cx="174.838" cy="175.863" r="46.1406" fill="#010101"/>
<circle cx="174.838" cy="175.863" r="22.5225" fill="#010101" stroke="#F7F7F7" stroke-width="15"/>
<path d="M112.084 55.0999H56.5844C54.9275 55.0999 53.5844 56.443 53.5844 58.0999V112.6" stroke="#F7F7F7" stroke-width="15" stroke-linecap="round"/>
<path d="M239.201 55.0999H294.701C296.357 55.0999 297.701 56.443 297.701 58.0999V112.6" stroke="#F7F7F7" stroke-width="15" stroke-linecap="round"/>
<path d="M112.084 295.553H56.5844C54.9275 295.553 53.5844 294.21 53.5844 292.553V238.053" stroke="#F7F7F7" stroke-width="15" stroke-linecap="round"/>
<path d="M239.201 295.553H294.701C296.357 295.553 297.701 294.21 297.701 292.553V238.053" stroke="#F7F7F7" stroke-width="15" stroke-linecap="round"/>
</svg>
